# xmcd
#
# Track frame offsets:
# 225
# 14760
# 30416
# 46832
# 60587
# 81214
# 90496
# 105699
# 118051
# 130572
# 143715
#
# Disc length: 2116 seconds
#
#
# Revision: 0
# Processed by: cddbd v1.5.1PL2 Copyright (c) Steve Scherf et al.
# Submitted via: FreeRIP 2.944 
#
DISCID=8708410b
DTITLE=Varios - Los Grandes del Siglo
DYEAR=1999
DGENRE=Blues
TTITLE0=As time goes by - Tony Bennet
TTITLE1=Unforgettable - Nat King Cole
TTITLE2=Georgia on my mind - Ray Charles
TTITLE3=Misty - Sarah Vaughan
TTITLE4=My way - Paul Anka
TTITLE5=All the way - Frank Sinatra
TTITLE6=Yesterday - Shirley Bassey
TTITLE7=Crazy - Patsy Cline
TTITLE8=Only you - The Platters
TTITLE9=When a man loves a woman - Percy Sledge
TTITLE10=La vie en rose - Louis Armstrong
EXTD=Artistas Varios
EXTT0=
EXTT1=
EXTT2=
EXTT3=
EXTT4=
EXTT5=
EXTT6=
EXTT7=
EXTT8=
EXTT9=
EXTT10=
PLAYORDER=
